<svg width="17" height="17" viewBox="0 0 17 17" fill="none" xmlns="http://www.w3.org/2000/svg">
					<path d="M11.4568 6.65233C11.6608 6.65233 11.8264 6.48675 11.8264 6.28275V1.84786C11.8264 0.829324 10.9978 0 9.9785 0H1.84786C0.828596 0 0 0.829324 0 1.84786V15.1525C0 16.1711 0.828596 17.0004 1.84786 17.0004H9.9785C10.9978 17.0004 11.8264 16.1711 11.8264 15.1525V10.7176C11.8264 10.5136 11.6608 10.348 11.4568 10.348C11.2528 10.348 11.0872 10.5136 11.0872 10.7176V15.1525C11.0872 15.7638 10.5898 16.2612 9.9785 16.2612H1.84786C1.23657 16.2612 0.739136 15.7638 0.739136 15.1525V1.84786C0.739136 1.23657 1.23657 0.739136 1.84786 0.739136H9.9785C10.5898 0.739136 11.0872 1.23657 11.0872 1.84786V6.28275C11.0872 6.48675 11.2528 6.65233 11.4568 6.65233Z" fill="#212121"></path>
					<path d="M16.6295 8.13037H4.80318C4.59917 8.13037 4.43359 8.29595 4.43359 8.49996C4.43359 8.70396 4.59917 8.86951 4.80318 8.86951H16.6295C16.8335 8.86951 16.9991 8.70393 16.9991 8.49992C16.9991 8.29592 16.8335 8.13037 16.6295 8.13037Z" fill="#212121"></path>
					<path d="M16.8911 8.23985L14.6737 6.02241C14.5295 5.87827 14.2952 5.87827 14.1511 6.02241C14.0069 6.16654 14.0069 6.40086 14.1511 6.545L16.1069 8.50078L14.1511 10.4566C14.0069 10.6007 14.0069 10.835 14.1511 10.9792C14.2235 11.0508 14.3181 11.0871 14.4127 11.0871C14.5073 11.0871 14.6019 11.0509 14.6737 10.9799L16.8911 8.76248C17.0352 8.61831 17.0352 8.38399 16.8911 8.23985Z" fill="#212121"></path>
				</svg>