<svg width="16" height="22" viewBox="0 0 16 22" fill="none" xmlns="http://www.w3.org/2000/svg">
					<path d="M15.4909 6.38723C15.4857 6.38723 15.4857 6.38723 15.4805 6.38723H12.4675V4.1811C12.4675 1.87446 10.5143 0 8.12987 0C5.74545 0 3.79221 1.87446 3.79221 4.1811V6.38723H0.519481C0.238961 6.3822 0.00519481 6.59829 0 6.86966C0 6.87469 0 6.87469 0 6.87971V18.6089C0 19.9959 1.16364 21.1165 2.5974 21.1165H13.4026C14.8364 21.1165 16 19.9959 16 18.6089V6.87971C16 6.60834 15.7714 6.38723 15.4909 6.38723ZM4.83117 4.1811C4.83117 2.42725 6.31688 1.00507 8.12987 1.00507C9.94286 1.00507 11.4286 2.42725 11.4286 4.1811V6.38723H4.83117V4.1811ZM14.961 18.6039C14.961 19.4331 14.2649 20.1065 13.4026 20.1065H2.5974C1.74026 20.1065 1.03896 19.4381 1.03896 18.6089V7.3923H3.79221V10.312C3.79221 10.5884 4.02597 10.8146 4.31169 10.8146C4.5974 10.8146 4.83117 10.5884 4.83117 10.312V7.3923H11.4286V10.312C11.4286 10.5884 11.6623 10.8146 11.9481 10.8146C12.2338 10.8146 12.4675 10.5884 12.4675 10.312V7.3923H14.961V18.6039Z" fill="#212121"></path>
				</svg>