<svg width="36" height="29" viewBox="0 0 36 29" fill="none" xmlns="http://www.w3.org/2000/svg"><path d="M35.2505 0.744259C34.2522 -0.24711 32.6305 -0.24711 31.6322 0.744259L27.6293 4.71961C26.6012 3.80729 25.2614 3.29349 23.8751 3.29349H5.64127C2.53045 3.29349 0 5.8065 0 8.89588V19.0269C0 22.0966 2.5006 24.5964 5.58489 24.626V27.3202C5.58489 27.9789 5.95633 28.5619 6.55661 28.8385C6.78876 28.9472 7.03418 28.9999 7.27628 28.9999C7.66098 28.9999 8.03906 28.8682 8.35081 28.608L13.1762 24.626H23.8751C26.9859 24.626 29.5163 22.113 29.5163 19.0269V10.0289L33.3236 6.24784C33.3303 6.24454 33.3336 6.24125 33.3402 6.23795C33.3468 6.23466 33.3468 6.22807 33.3502 6.22149L35.2472 4.33756C36.2487 3.34619 36.2487 1.73233 35.2505 0.744259ZM20.3232 17.7622C19.8953 18.1871 19.3979 18.5263 18.844 18.77L15.7166 20.1402L17.0963 17.0376C17.3417 16.4876 17.6833 15.9935 18.1111 15.5687L30.0735 3.68872L32.2856 5.88554L20.3232 17.7622ZM28.5214 19.0269C28.5214 21.5696 26.4354 23.638 23.8751 23.638H12.8181L7.71405 27.8472C7.5018 28.0217 7.22653 28.0579 6.9778 27.9427C6.72906 27.8274 6.57982 27.5935 6.57982 27.3169V23.638H5.64127C3.08098 23.638 0.994933 21.5696 0.994933 19.0269V8.89588C0.994933 6.34994 3.08098 4.28157 5.64127 4.28157H23.8751C24.996 4.28157 26.0838 4.68997 26.9262 5.41785L17.408 14.8704C16.894 15.3809 16.4827 15.9771 16.1876 16.6391L14.6454 20.1006C14.5028 20.4201 14.5725 20.7824 14.8212 21.0294C14.9804 21.1875 15.1993 21.2732 15.4181 21.2732C15.5342 21.2732 15.647 21.2501 15.7564 21.204L19.242 19.6758C19.9086 19.3826 20.5089 18.9742 21.0229 18.4637L28.5214 11.0169V19.0269ZM34.5474 3.63602L32.9887 5.18401L30.7766 2.99048L32.3353 1.4425C32.6404 1.13949 33.0417 0.987984 33.443 0.987984C33.8443 0.987984 34.2423 1.13949 34.5474 1.4425C35.1576 2.04852 35.1576 3.0333 34.5474 3.63602Z" fill="black"></path><path d="M20.2274 8.30981H4.0166V9.29789H20.2274V8.30981Z" fill="black"></path><path d="M15.3588 13.1282H4.0166V14.1162H15.3588V13.1282Z" fill="black"></path><path d="M11.8965 17.9436H4.0166V18.9317H11.8965V17.9436Z" fill="black"></path></svg>