
<svg width="19" height="19" viewBox="0 0 19 19" fill="none" xmlns="http://www.w3.org/2000/svg">
					<path fill-rule="evenodd" clip-rule="evenodd" d="M9.50053 11.3352C12.422 11.3352 14.7903 8.96692 14.7903 6.04545C14.7903 3.12399 12.422 0.755682 9.50053 0.755682C6.57907 0.755682 4.21076 3.12399 4.21076 6.04545C4.21076 8.96692 6.57907 11.3352 9.50053 11.3352ZM9.50053 12.0909C12.8393 12.0909 15.546 9.38427 15.546 6.04545C15.546 2.70664 12.8393 0 9.50053 0C6.16172 0 3.45508 2.70664 3.45508 6.04545C3.45508 9.38427 6.16172 12.0909 9.50053 12.0909Z" fill="#212121"></path>
					<path fill-rule="evenodd" clip-rule="evenodd" d="M0.741999 18.136C0.742038 18.1359 0.742083 18.1356 0.370985 18.0476C-0.000113572 17.9595 -5.87149e-05 17.9593 1.53258e-06 17.959L0.000149023 17.9583L0.000542279 17.9565L0.00172809 17.9511L0.00574874 17.9335C0.00918155 17.9187 0.014147 17.8981 0.0208016 17.8718C0.0341088 17.8193 0.0541853 17.7446 0.0822893 17.6508C0.138473 17.4634 0.226894 17.1992 0.357707 16.8838C0.619071 16.2537 1.05148 15.415 1.73758 14.576C3.11918 12.8865 5.50509 11.2273 9.5 11.2273C13.4949 11.2273 15.8808 12.8865 17.2624 14.576C17.9485 15.415 18.3809 16.2537 18.6423 16.8838C18.7731 17.1992 18.8615 17.4634 18.9177 17.6508C18.9458 17.7446 18.9659 17.8193 18.9792 17.8718C18.9859 17.8981 18.9908 17.9187 18.9942 17.9335L18.9983 17.9511L18.9995 17.9565L18.9999 17.9583L19 17.959C19.0001 17.9593 19.0001 17.9595 18.629 18.0476C18.2579 18.1356 18.258 18.1359 18.258 18.136L18.2577 18.1347L18.2554 18.1248C18.2532 18.1153 18.2496 18.0999 18.2443 18.0792C18.2337 18.0376 18.2168 17.9744 18.1923 17.8927C18.1433 17.7291 18.0641 17.4918 17.9453 17.2054C17.7074 16.6319 17.3125 15.8658 16.6863 15.1001C15.4433 13.58 13.2648 12.0297 9.5 12.0297C5.73525 12.0297 3.55665 13.58 2.31366 15.1001C1.68746 15.8658 1.29255 16.6319 1.05467 17.2054C0.935866 17.4918 0.856684 17.7291 0.80767 17.8927C0.783175 17.9744 0.766254 18.0376 0.755713 18.0792C0.750444 18.0999 0.746773 18.1153 0.74455 18.1248L0.742285 18.1347L0.741999 18.136ZM18.2581 18.1363C18.2581 18.1364 18.2581 18.1364 18.2581 18.1363L18.2581 18.1363Z" fill="#212121"></path>
				</svg>